<?xml version="1.0" encoding="utf-8"?>
<svg xmlns="http://www.w3.org/2000/svg" viewBox="0 0 500 500" xmlns:bx="https://boxy-svg.com" width="500px" height="500px"><defs><bx:export><bx:file format="svg" path="logo.svg"/></bx:export></defs><g transform="matrix(0.578823, 0, 0, 0.54475, 185.239, 142.925)" style=""><g id="Layer_1"><path opacity="1.000000" stroke="none" d="M 487.636 217.901 C 477.006 244.178 458.615 262.623 433.745 274.85 C 417.181 282.992 399.531 286.756 381.151 286.927 C 355.995 287.162 330.837 287.082 305.682 287.286 C 301.523 287.319 300.257 285.841 300.285 281.689 C 300.641 227.209 300.897 172.729 301.028 118.249 C 301.052 108.08 300.746 108.129 311.092 108.294 C 314.75 108.352 318.446 108.37 322.065 107.921 C 325.838 107.454 327.245 108.764 327.205 112.503 C 326.934 137.992 326.723 163.482 326.557 188.972 C 326.407 212.131 326.39 235.291 326.185 258.449 C 326.151 262.245 327.181 263.686 331.325 263.562 C 349.301 263.022 367.296 263.114 385.267 262.48 C 429.269 260.929 464.158 230.092 468.399 186.011 C 470.843 160.61 465.408 137.623 448.784 118.02 C 432.008 98.237 410.147 88.485 384.31 88.202 C 378.76 88.142 375.46 86.62 372.665 81.851 C 369.17 75.888 364.782 70.449 360.311 64.12 C 362.189 63.692 363.698 62.983 365.159 63.073 C 377.596 63.835 390.097 64.172 402.441 65.734 C 423.093 68.347 441.227 77.18 457.316 90.253 C 474.549 104.256 486.149 122.212 491.597 143.525 C 497.952 168.39 497.372 193.299 487.636 217.901 Z" style="fill: rgb(135, 113, 74);"/><path opacity="1.000000" stroke="none" d="M -83.845 267.291 C -99.94 278.186 -117.06 286.087 -135.96 288.704 C -171.52 293.628 -205.11 289.101 -233.53 264.665 C -251.42 249.288 -262.9 229.852 -267.8 206.858 C -270.07 196.187 -272.45 185.105 -271.93 174.348 C -269.65 127.399 -249.96 90.445 -206.55 69.045 C -197.5 64.586 -186.99 62.817 -176.97 60.699 C -166.18 58.42 -166.12 58.875 -166.5 69.82 C -166.59 72.476 -166.63 75.192 -166.19 77.794 C -165.46 82.076 -166.93 83.72 -171.32 84.185 C -190.11 86.176 -206.16 94.262 -219.01 107.936 C -235.99 126.016 -244.43 147.735 -244.85 172.639 C -245.23 195.46 -240.39 216.746 -226.14 234.974 C -205.43 261.478 -177.44 270.208 -144.96 266.324 C -128.13 264.314 -112.99 257.496 -98.781 248.395 C -95.579 246.344 -94.44 244.029 -94.457 240.23 C -94.527 224.91 -94.278 209.588 -94.036 194.269 C -93.977 190.514 -95.617 189.396 -99.22 189.47 C -118.7 189.869 -138.19 190.06 -157.67 190.402 C -161.33 190.466 -162.78 188.954 -162.59 185.292 C -162.36 180.978 -162.19 176.621 -162.54 172.329 C -162.92 167.836 -161.18 166.465 -156.86 166.51 C -135.53 166.735 -114.2 166.775 -92.872 166.826 C -86.876 166.84 -80.873 166.802 -74.884 166.539 C -71.138 166.374 -69.503 167.413 -69.549 171.582 C -69.841 197.906 -70.021 224.233 -69.904 250.557 C -69.884 255.037 -70.82 258.218 -74.652 260.637 C -77.744 262.587 -80.586 264.933 -83.845 267.291 Z" style="fill: rgb(135, 113, 74);"/><path opacity="1.000000" stroke="none" d="M 87.197 282.281 C 73.002 290.028 57.997 294.172 42.378 293.774 C 0.1 292.697 -35.472 268.062 -45.778 223.691 C -54.736 185.12 -44.556 151.79 -14.222 125.595 C -1.435 114.553 13.901 108.777 30.629 106.5 C 78.819 99.942 122.025 129.436 132.111 176.294 C 139.901 212.486 131.328 244.355 104.088 270.223 C 99.204 274.86 93.087 278.197 87.197 282.281 M -11.856 160.857 C -25.527 184.781 -26.48 209.361 -14.129 233.833 C 4.004 269.76 50.074 280.399 82.218 255.984 C 108.18 236.264 115.417 197.436 101.666 168.199 C 91.637 146.877 74.803 133.586 51.594 130.633 C 24.902 127.237 3.365 137.207 -11.856 160.857 Z" style="fill: rgb(135, 113, 74);"/><path opacity="1.000000" stroke="none" d="M -115.47 4.398 C -115.6 -0.258 -115.53 -4.438 -115.94 -8.569 C -116.24 -11.592 -115.34 -13.021 -112.27 -12.979 C -105.27 -12.882 -98.269 -12.981 -91.292 -12.601 C -89.626 -12.51 -87.537 -11.236 -86.502 -9.86 C -75.199 5.168 -64.052 20.312 -52.92 35.467 C -52.048 36.653 -51.602 38.152 -50.958 39.506 C -50.234 39.076 -49.509 38.646 -48.785 38.216 C -48.494 36.904 -47.93 35.586 -47.954 34.28 C -48.186 21.636 -48.506 8.993 -48.823 -3.649 C -49.051 -12.756 -49.066 -12.737 -39.672 -12.731 C -34.675 -12.727 -29.663 -13.024 -24.692 -12.684 C -23.394 -12.595 -21.153 -10.627 -21.155 -9.525 C -21.196 11.449 -21.58 32.422 -21.732 53.397 C -21.804 63.386 -21.635 73.379 -21.378 83.366 C -21.29 86.782 -22.407 88.265 -25.944 88.129 C -31.266 87.924 -36.635 88.352 -41.911 87.806 C -44.227 87.567 -47.081 86.14 -48.468 84.32 C -60.269 68.832 -71.773 53.118 -83.43 37.52 C -84.139 36.572 -85.398 36.035 -86.4 35.307 C -86.913 36.578 -87.883 37.855 -87.867 39.12 C -87.688 53.439 -87.414 67.758 -87.04 82.074 C -86.9 87.408 -87.52 88.095 -92.897 88.016 C -99.06 87.927 -105.22 87.982 -111.38 88.056 C -114.65 88.095 -116.18 86.909 -116.13 83.33 C -115.83 57.186 -115.67 31.04 -115.47 4.398 Z" style="fill: rgb(135, 113, 74);"/><path opacity="1.000000" stroke="none" d="M 156.224 169.385 C 156.185 150.393 156.231 131.901 156.038 113.411 C 155.997 109.435 157.233 108.148 161.26 108.441 C 166.557 108.825 171.907 108.624 177.228 108.475 C 180.835 108.374 182.277 109.768 182.254 113.479 C 181.982 158.457 181.824 203.435 181.593 248.413 C 181.57 252.906 181.326 257.402 181.071 261.891 C 180.879 265.278 182.281 266.753 185.735 266.712 C 215.544 266.356 245.354 266.113 275.162 265.705 C 278.859 265.654 280.333 266.963 280.214 270.624 C 280.053 275.612 279.942 280.619 280.186 285.599 C 280.371 289.366 278.917 290.557 275.258 290.537 C 240.775 290.349 206.291 290.272 171.807 290.196 C 167.978 290.187 164.126 290.154 160.327 290.549 C 156.526 290.943 155.304 289.557 155.368 285.815 C 155.72 265 155.97 244.181 156.12 223.363 C 156.249 205.538 156.197 187.711 156.224 169.385 Z" style="fill: rgb(135, 113, 74);"/><path opacity="1.000000" stroke="none" d="M 339.698 73.848 C 342.421 77.456 344.954 80.756 347.42 84.105 C 349.525 86.964 348.63 88.394 345.197 88.366 C 336.71 88.295 328.212 88.383 319.744 87.936 C 317.828 87.834 315.38 86.245 314.261 84.602 C 309.11 77.044 304.338 69.227 299.441 61.497 C 297.025 57.683 291.252 55.45 287.377 57.299 C 286.29 57.818 285.361 59.859 285.338 61.219 C 285.218 68.37 285.199 75.538 285.579 82.677 C 285.793 86.696 284.938 88.502 280.449 88.227 C 274.314 87.85 268.133 87.976 261.982 88.181 C 257.833 88.319 256.682 86.855 256.72 82.606 C 256.985 52.323 257.012 22.036 256.885 -8.248 C 256.871 -11.614 257.736 -12.754 260.956 -12.74 C 277.77 -12.663 294.618 -13.326 311.386 -12.448 C 325.11 -11.73 337.437 -6.585 342.828 7.441 C 348.282 21.631 346.445 42.011 329.141 50.257 C 325.571 51.958 325.501 53.795 327.746 56.8 C 331.826 62.262 335.587 67.962 339.698 73.848 M 301.673 12.197 C 297.526 12.012 293.364 11.561 289.24 11.791 C 287.864 11.867 285.511 13.614 285.441 14.714 C 285.064 20.678 285.06 26.69 285.433 32.654 C 285.507 33.834 287.821 35.85 289.054 35.815 C 295.349 35.637 301.644 35.044 307.91 34.341 C 313.871 33.672 317.245 29.355 317.227 22.9 C 317.21 16.993 313.606 12.947 307.609 12.255 C 305.967 12.065 304.287 12.198 301.673 12.197 Z" style="fill: rgb(135, 113, 74);"/><path opacity="1.000000" stroke="none" d="M 117.266 -12.723 C 128.927 -12.723 140.114 -13.149 151.255 -12.62 C 166.914 -11.878 180.995 -7.01 191.361 5.622 C 200.776 17.098 202.594 30.527 200.935 44.688 C 198.085 69.021 178.867 85.007 153.225 86.917 C 139.13 87.967 124.941 87.721 110.796 88.108 C 107.534 88.197 106.435 86.668 106.469 83.527 C 106.76 56.539 106.966 29.549 107.192 2.559 C 107.207 0.726 107.206 -1.108 107.167 -2.941 C 106.956 -12.733 106.951 -12.733 117.266 -12.723 M 159.669 59.449 C 168.6 55.503 172.424 48.114 172.985 38.881 C 173.586 28.989 169.991 21.001 161.172 15.812 C 153.556 11.332 145.14 12.183 136.887 12.459 C 136 12.488 134.488 15.056 134.468 16.464 C 134.266 30.413 134.211 44.367 134.456 58.314 C 134.481 59.77 136.803 62.494 137.894 62.412 C 144.948 61.883 151.956 60.739 159.669 59.449 Z" style="fill: rgb(135, 113, 74);"/><path opacity="1.000000" stroke="none" d="M -2.012 61.016 C 7.879 37.184 17.581 13.686 27.503 -9.718 C 28.189 -11.336 30.461 -13.245 32.089 -13.335 C 39.224 -13.727 46.406 -13.716 53.544 -13.336 C 55.211 -13.247 57.596 -11.49 58.256 -9.915 C 68.537 14.61 78.545 39.249 88.72 63.819 C 91.453 70.418 94.517 76.881 97.459 83.393 C 98.863 86.5 98.145 88.215 94.504 88.192 C 86.845 88.142 79.171 88.35 71.539 87.878 C 69.797 87.771 67.82 85.599 66.64 83.899 C 65.457 82.192 65.191 79.867 64.425 77.851 C 61.145 69.217 61.133 69.314 52.171 69.422 C 44.346 69.516 36.515 69.488 28.693 69.282 C 25.09 69.187 22.963 70.083 21.671 73.909 C 16.964 87.841 16.811 87.775 2.004 87.86 C -1.326 87.879 -4.654 88.076 -7.984 88.108 C -12.623 88.152 -13.45 86.943 -11.633 82.805 C -8.49 75.653 -5.312 68.516 -2.012 61.016 M 35.943 37.459 C 35.071 39.244 34.182 41.02 33.331 42.815 C 31.29 47.122 32.259 48.376 37.151 48.148 C 40.603 47.988 44.075 47.982 47.528 48.14 C 52.585 48.373 53.51 47.065 51.71 42.398 C 49.395 36.395 47.324 30.3 45.093 24.264 C 44.674 23.132 43.999 22.095 43.442 21.014 C 42.914 20.954 42.387 20.895 41.859 20.835 C 39.987 26.138 38.115 31.441 35.943 37.459 Z" style="fill: rgb(135, 113, 74);"/><path opacity="1.000000" stroke="none" d="M 214.205 58.385 C 214.119 43.403 214.126 28.92 213.885 14.442 C 213.82 10.571 215.327 9.59 218.958 9.742 C 225.087 9.999 231.253 10.041 237.372 9.666 C 241.177 9.432 241.957 11.053 241.946 14.299 C 241.869 37.422 241.839 60.544 241.886 83.667 C 241.892 86.762 240.987 88.284 237.611 88.198 C 231.124 88.034 224.628 88.067 218.139 88.18 C 214.651 88.241 213.456 86.754 213.599 83.328 C 213.939 75.186 214.019 67.033 214.205 58.385 Z" style="fill: rgb(135, 113, 74);"/><path opacity="1.000000" stroke="none" d="M 58.518 390.378 C 58.648 372.738 58.798 355.596 58.897 338.454 C 58.944 330.165 58.898 330.175 50.983 327.749 C 50.603 327.633 50.359 327.071 49.061 325.571 C 56.22 324.936 62.43 324.386 68.88 323.814 C 69.16 326.483 69.365 328.43 69.637 331.018 C 83.153 321.772 96.143 320.121 107.049 334.189 C 113.757 342.841 112.884 356.872 106.005 365.472 C 97.835 375.683 86.42 377.364 69.798 370.52 C 69.571 371.827 69.193 373.021 69.182 374.218 C 69.101 383.039 69.177 391.861 69.031 400.68 C 68.953 405.355 70.377 408.477 75.607 408.738 C 76.238 408.769 76.836 409.47 77.253 410.735 C 68.076 410.735 58.898 410.735 49.197 410.735 C 49.834 409.751 50.004 409.135 50.329 409.039 C 58.36 406.67 58.367 406.68 58.468 398.366 C 58.499 395.87 58.501 393.374 58.518 390.378 M 89.363 370.521 C 103.142 364.209 103.028 342.04 94.368 333.706 C 91.992 331.42 88.602 329.557 85.39 328.895 C 76.865 327.138 69.273 333.695 69.244 342.188 C 69.224 348.017 69.229 353.845 69.213 359.673 C 69.195 366.64 70.505 368.903 77.352 370.568 C 80.919 371.436 84.853 370.799 89.363 370.521 Z" style="fill: rgb(135, 113, 74);"/><path opacity="1.000000" stroke="none" d="M -48.922 332.615 C -42.25 333.647 -38.197 330.825 -36.201 324.304 C -35.812 324.686 -35.424 325.067 -35.035 325.449 C -35.035 331.54 -35.035 337.632 -35.035 344.459 C -36.32 343.706 -37.37 343.457 -37.513 342.951 C -39.079 337.408 -43.413 336.781 -48.143 336.757 C -53.805 336.73 -59.471 336.802 -65.128 336.614 C -68.675 336.496 -70.341 337.752 -70.296 341.48 C -70.207 348.806 -70.342 356.135 -70.424 363.462 C -70.47 367.598 -68.53 369.579 -64.346 369.53 C -57.685 369.451 -51.022 369.409 -44.363 369.512 C -37.985 369.609 -33.021 367.413 -29.953 361.551 C -29.413 360.518 -28.396 359.736 -27.598 358.837 C -27.092 359.049 -26.586 359.262 -26.079 359.474 C -27.286 363.771 -28.386 368.104 -29.807 372.33 C -30.036 373.011 -31.695 373.58 -32.692 373.58 C -51.676 373.566 -70.66 373.463 -89.644 373.349 C -90.224 373.345 -90.801 373.015 -91.596 372.77 C -91.216 372.074 -91.095 371.454 -90.781 371.334 C -82.796 368.267 -82.032 367.47 -81.927 358.698 C -81.731 342.213 -81.709 325.724 -81.75 309.237 C -81.77 301.592 -82.671 300.583 -90.067 297.91 C -90.434 297.777 -90.641 297.201 -91.467 296.118 C -89.599 295.868 -88.263 295.534 -86.927 295.534 C -69.274 295.531 -51.62 295.643 -33.968 295.548 C -30.527 295.53 -29.076 296.59 -29.383 300.133 C -29.619 302.859 -29.43 305.621 -29.43 308.629 C -30.601 308.25 -31.134 308.212 -31.178 308.044 C -32.957 301.329 -37.853 299.636 -44.09 299.699 C -51.082 299.77 -58.082 299.704 -65.068 299.417 C -68.658 299.269 -70.19 300.327 -70.104 304.152 C -69.93 311.974 -70.024 319.808 -70.229 327.631 C -70.323 331.204 -69.172 332.811 -65.384 332.656 C -60.064 332.438 -54.728 332.609 -48.922 332.615 Z" style="fill: rgb(135, 113, 74);"/><path opacity="1.000000" stroke="none" d="M -7.532 332.008 C -11.218 330.091 -14.639 328.433 -18.06 326.775 C -18.001 326.517 -17.942 326.259 -17.883 326.001 C -8.393 326.001 1.098 326.001 11.249 326.001 C 5.303 331.608 6.701 336.198 15.894 343.026 C 17.861 340.913 19.924 338.803 21.866 336.588 C 26.206 331.637 26.157 330.759 20.848 326.126 C 28.341 326.126 35.081 326.126 41.82 326.126 C 42.019 326.579 42.217 327.031 42.415 327.484 C 30.778 329.443 25.595 339.077 17.549 346.527 C 27.012 355.27 31.311 368.466 44.874 372.854 C 35.89 372.854 26.907 372.854 17.717 372.854 C 21.674 367.628 21.686 367.618 17.493 362.325 C 15.438 359.731 13.327 357.182 10.668 353.906 C 6.976 358.207 3.224 361.946 0.384 366.282 C -0.436 367.533 1.365 370.502 2.044 372.971 C -4.245 372.971 -11.166 372.971 -18.086 372.971 C -18.312 372.543 -18.538 372.115 -18.764 371.688 C -5.242 370.51 -0.275 358.913 8.786 351.017 C 3.248 344.547 -2.009 338.407 -7.532 332.008 Z" style="fill: rgb(135, 113, 74);"/><path opacity="1.000000" stroke="none" d="M 171.973 353.682 C 170.76 342.232 174.934 333.539 184.303 327.895 C 193.411 322.407 203.041 322.373 212.218 328.041 C 217.85 331.518 221.534 336.409 221.119 344.351 C 216.87 344.351 212.932 344.354 208.994 344.351 C 201.67 344.344 194.341 344.181 187.028 344.455 C 185.56 344.51 182.917 346.2 182.902 347.169 C 182.638 364.312 196.22 374.359 210.105 369.846 C 212.552 369.051 214.696 367.232 216.875 365.733 C 218.47 364.635 219.893 363.286 221.695 361.8 C 221.373 368.443 212.702 374.243 202.727 375.08 C 187.282 376.374 174.845 367.868 171.973 353.682 M 189.635 328.917 C 185.358 331.742 182.842 335.466 183.178 341.129 C 192.654 341.129 201.751 341.129 210.847 341.129 C 210.722 329.765 201.779 324.518 189.635 328.917 Z" style="fill: rgb(135, 113, 74);"/><path opacity="1.000000" stroke="none" d="M 267.974 354.979 C 273.284 368.216 260.405 377.595 250.46 375.842 C 248.83 375.555 247.213 375.114 245.638 374.598 C 239.132 372.464 239.139 372.444 233.513 375.674 C 233.513 370.114 233.513 364.856 233.513 359.597 C 233.88 359.431 234.248 359.266 234.615 359.1 C 235.448 360.43 236.425 361.691 237.088 363.1 C 239.984 369.248 244.881 372.527 251.544 373.003 C 255.807 373.308 259.671 372.098 261.173 367.586 C 262.714 362.955 260.856 359.377 256.621 357.214 C 252.333 355.023 247.863 353.19 243.546 351.052 C 235.431 347.031 232.558 342.013 234.439 335.44 C 236.216 329.23 243.514 324.64 250.961 325.075 C 251.955 325.133 252.938 325.346 253.931 325.439 C 257.833 325.804 261.736 326.15 266.142 326.548 C 266.142 330.208 266.142 335.008 266.142 339.809 C 265.648 339.93 265.155 340.052 264.662 340.174 C 263.92 338.726 263.112 337.307 262.448 335.823 C 259.776 329.846 254.11 326.68 247.828 328.381 C 245.738 328.947 242.946 330.89 242.538 332.675 C 242.059 334.774 243.116 338.277 244.765 339.587 C 248.079 342.221 252.415 343.521 256.02 345.85 C 260.125 348.502 263.893 351.677 267.974 354.979 Z" style="fill: rgb(135, 113, 74);"/><path opacity="1.000000" stroke="none" d="M 294.461 375.221 C 289.706 374.13 285.273 369.452 280.517 375.373 C 280.517 370.111 280.517 364.849 280.517 359.587 C 280.896 359.425 281.275 359.262 281.654 359.1 C 282.477 360.442 283.425 361.726 284.103 363.138 C 287.136 369.46 292.213 372.742 299.112 373.029 C 303.237 373.2 306.818 371.709 308.204 367.467 C 309.645 363.056 307.942 359.517 303.922 357.395 C 299.808 355.223 295.494 353.43 291.288 351.429 C 282.555 347.274 279.402 342.044 281.492 335.251 C 283.658 328.209 292.252 323.888 300.682 325.365 C 304.521 326.038 308.442 326.238 313.209 326.747 C 313.209 330.112 313.209 334.936 313.209 339.76 C 312.757 339.904 312.306 340.048 311.854 340.192 C 311.074 338.801 310.176 337.463 309.535 336.012 C 306.773 329.758 300.917 326.512 294.518 328.441 C 292.469 329.059 289.923 331.129 289.446 333.003 C 288.957 334.925 290.209 337.855 291.64 339.547 C 293.158 341.342 295.73 342.307 297.939 343.443 C 301.194 345.117 304.644 346.432 307.82 348.237 C 315.071 352.359 317.823 358.519 315.68 365.22 C 313.604 371.711 306.006 376.607 298.782 376.042 C 297.462 375.939 296.162 375.569 294.461 375.221 Z" style="fill: rgb(135, 113, 74);"/><path opacity="1.000000" stroke="none" d="M 162.53 335.588 C 159.602 334.924 156.995 333.524 154.293 333.308 C 150.983 333.042 147.429 333.231 144.278 334.195 C 140.042 335.492 138.277 338.782 138.53 343.488 C 138.851 349.458 138.529 355.466 138.426 361.456 C 138.306 368.485 138.7 369.042 145.509 371.119 C 146.057 371.286 146.513 371.756 148.23 372.889 C 137.818 372.889 128.772 372.889 118.716 372.889 C 119.965 371.863 120.479 371.07 121.027 371.046 C 127.086 370.787 128.252 366.862 128.232 361.837 C 128.198 353.515 128.308 345.193 128.298 336.871 C 128.29 329.692 127.79 329.188 120.593 328.023 C 119.594 327.861 118.65 327.352 117.68 327.004 C 117.698 326.497 117.716 325.991 117.733 325.484 C 124.046 325.02 130.355 324.469 136.676 324.222 C 137.329 324.196 138.47 325.907 138.652 326.941 C 138.977 328.793 138.743 330.743 138.743 333.565 C 147.94 328.474 155.349 318.942 166.393 328.098 C 165.136 330.65 163.973 333.013 162.53 335.588 Z" style="fill: rgb(135, 113, 74);"/><path opacity="1.000000" stroke="none" d="M 213.52 2.071 C 213.201 -3.533 212.881 -8.836 213.087 -14.118 C 213.133 -15.313 214.978 -17.406 216.047 -17.44 C 224.659 -17.713 233.284 -17.593 242.372 -17.593 C 242.372 -11.085 242.499 -4.99 242.234 1.089 C 242.195 1.988 240.319 3.526 239.268 3.547 C 231.469 3.706 223.664 3.585 215.863 3.454 C 215.139 3.442 214.427 2.754 213.52 2.071 Z" style="fill: rgb(135, 113, 74);"/></g></g></svg>