<svg xmlns="http://www.w3.org/2000/svg" width="24" height="24" fill="none" viewBox="0 0 25 25"><path fill="currentColor" d="M2.44 20.62a.75.75 0 0 0 1.298.75zm18.189.75a.75.75 0 0 0 1.299-.75zm-16.89 0a9.75 9.75 0 0 1 3.569-3.568l-.75-1.3A11.25 11.25 0 0 0 2.44 20.62zm3.569-3.568a9.75 9.75 0 0 1 4.876-1.306v-1.5c-1.975 0-3.915.52-5.626 1.507zm4.876-1.306c1.711 0 3.393.45 4.875 1.306l.75-1.299a11.25 11.25 0 0 0-5.625-1.507zm4.875 1.306a9.75 9.75 0 0 1 3.57 3.569l1.299-.75a11.25 11.25 0 0 0-4.119-4.118zm.374-8.056c0 2.9-2.35 5.25-5.25 5.25v1.5a6.75 6.75 0 0 0 6.75-6.75zm-5.25 5.25a5.25 5.25 0 0 1-5.25-5.25h-1.5a6.75 6.75 0 0 0 6.75 6.75zm-5.25-5.25c0-2.9 2.351-5.25 5.25-5.25v-1.5a6.75 6.75 0 0 0-6.75 6.75zm5.25-5.25c2.9 0 5.25 2.35 5.25 5.25h1.5a6.75 6.75 0 0 0-6.75-6.75z"></path></svg>
